# xmcd
#
# Track frame offsets:
#	150
#	26553
#	43880
#	71404
#	108643
#	135375
#	151730
#	168436
#	186845
#	205722
#	228003
#	247088
#	268355
#	291137
#	312227
#	338000
#
# Disc length: 4770 seconds
#
# Revision: 2
# Processed by: cddbd v1.5.1PL0 Copyright (c) Steve Scherf et al.
# Submitted via: EasyCDDAExtractor 7.0.4.1
#
DISCID=e312a010
DTITLE=Dire Straits - Sultans of Swing: The Very Best of Dire Straits (1 of 2)
DYEAR=1900
DGENRE=Blues
TTITLE0=Sultans of Swing
TTITLE1=Lady Writer
TTITLE2=Romeo and Juliet
TTITLE3=Tunnel of Love
TTITLE4=Private Investigations
TTITLE5=Twisting by the Pool
TTITLE6=Love over Gold [Live]
TTITLE7=So Far Away
TTITLE8=Money for Nothing
TTITLE9=Brothers in Arms
TTITLE10=Walk of Life
TTITLE11=Calling Elvis
TTITLE12=Heavy Fuel
TTITLE13=On Every Street
TTITLE14=Your Latest Trick [Live]
TTITLE15=Local Hero - Wild Theme [Live]
EXTD=SULTANS OF SWING\nThe Very Best Of DIRE STRAITS ID3G:   0\n
EXTT0=
EXTT1=
EXTT2=
EXTT3=
EXTT4=
EXTT5=
EXTT6=
EXTT7=
EXTT8=
EXTT9=
EXTT10=
EXTT11=
EXTT12=
EXTT13=
EXTT14=
EXTT15=
PLAYORDER=
